<?xml version="1.0" encoding="UTF-8"?>
<svg id="a" data-name="Layer 1" xmlns="http://www.w3.org/2000/svg" viewBox="0 0 246.04 280.11">
  <path d="M221.45,152.25c-6.75-20.79-12.07-44.42-16-66.02-1.68-9.05-.94-19.01-3.13-27.95-1.04-3.75-2.15-7.13-4.95-9.18-6.32-4.16-21.44,1.64-29.55.2l-.11-.05c-.26-.13-.36-.34-.39-.61-.05-.85,0-2.88-.02-5.49-.18-6.62.36-15.82-.2-22.19-2.98-4.8-22.8-.55-27.42,6.06-2.08,3.57-1.2,8.28-1.19,12.21.6,6.25-1.56,11.03-8.38,12.37-8.25,1.81-21.26-.57-31.08-.78-4.84-.35-9.54,1.66-14.39,1.59-6.24-.08-12.94-2.89-19.3-1.38-1.93,4.15-19.37,71.75-28.74,105.51-2.77,10.29-4.67,17.27-4.94,18.37.03.38-.04.98.19,1.48.77,4.19,5.31,3.69,7.54,7.53.75,1.38,1.23,2.98,1.4,4.69,2.07,16.02.89,33.1.28,49.27-.05,1.12.58,1.89,1.47,2.54,3.06,1.68,5.86,4.52,9.55,4.34,31.97,1.21,64.17-.73,96.12.13,6.1.07,13.07,2.06,18.96,2.64,2.05.18,3.42.17,4.52-.28,9.03-4.53,16.46-13.51,25.82-17.69,3.07-1.22,6.52-2.12,9.47-3.51,9.94-4.16,2.02-26.98,2.39-35.71.08-5.06.8-11.85,1.39-16.54.14-10.44,14.3-4.69,14.77-12.86,0-3.01-2.88-5.63-4.09-8.67ZM148.71,39.26c2.07-.72,7.86-2.6,9.92-3.29.32-.09.69-.24.88-.01l.03.08c-3.72,16.33,8.6,51.33-8.9,59.92-1.96.75-3.03-.56-2.68-2.48,1.77-17.4.31-34.63-.3-52.01-.02-1.21.06-1.84,1.05-2.22ZM166.21,237.19c-.2,1.31-1.71,1.25-2.86,1.23-8.88-.29-19.41-1.91-28.08-1.11-2.35.13-5.07,1.18-6.9,2.32-.63.34-1.23.64-1.72.69-1.05.23-1.51-1.33-2.75-2.22-.44-.23-.98-.53-1.47-.64-9.73-3.53-72.74,5.72-71.83-2.81.43-18.13,1.36-36.75-3.63-54.31,3.12-.46,65.7,4.77,82.49,5.81.06.04.05.15-.07.34l-.06.1c-2.14,3.32-8.57,3.9-10.86,7.12-1.09,3.5.73,14.95,2.9,19.16,2.35,3.15,8,3.06,11.73,3.54,1.94.02,3.62.22,5.19-.74,2.86-1.97,4.62-10.36,4.87-17.16.21-11.33-1.57-9.6-11.51-9.31-2.24.01-1.35-1.93.05-2.43,5.47-.91,24.48,2.06,31.27,1.2,1.2-.13,1.46.04,1.71,1.28,1.65,7.18,3.12,39.92,1.54,47.92ZM134.05,198.19l.09.09c.76,2.56.93,11.44-2.21,10.53-5.12-1.05-7.35-5.93-3.43-9.85,1.47-1.53,3.94-2.3,5.55-.78ZM164.78,171.59c-1.47,4.6-2.71,7.02-7.3,7.33-11.96,1.94-24.26,1.48-36.47.37-25.48-1.12-51.56-9.62-76.83-4.01-1.11.22-1.75.24-1.89-.11,1.08-12.39,10.26-39.71,13.21-46.93.33-.56.66-1.04.98-1.49-.05-.52,0-1.04.2-1.54,0-.01,0-.02.01-.03-.32-1.14-.23-2.39.44-3.4.64-.96,1.23-1.87,1.76-2.78.37-1.08.75-2.16,1.15-3.24-.19-.48-.4-.98-.64-1.53-.17-.5-.24-.73-.15-1.13,1.12-4.19,9.56-35.54,12.86-47.82.26-.99.52-1.86.75-2.79.4-1.4.08-1.08,1.46-1.16.17,0,.36,0,.56-.01,9.32-.19,56.39-1.27,60.33-1.31.21.03.36.17.5.52,1.41,4.74,1.01,10.22.99,16.11-.2,16.46-1.72,38.78,21.54,28.74.64-.37,1.02-.76,1.43-1.33,2.33-3.43,9.83-16.89,10.47-18.94.44-6.78,0-19.06.15-24.73.11-.83-.37-1.9.6-1.97,2.85,0,16.12-.08,20.3.02h.04c-3.11,15.44-14.5,63.9-15.53,68.99-1.14,1.59-4.16,3.64-4.66,6.06-.31,1.22.14,2.12.68,3.13,3.06,4.81-1.46,9.58-3.05,14.61-2.01,5.91-1.74,13.17-3.89,20.38ZM200.26,218.46c-2.78,1.61-2.81-1.06-2.89-3.64-.31-4.79-1-9.72-1.32-14.52-1.46-7.2,5.66-29.11-4.38-29.28-23.8,4.37-6.88,40.89-7.27,57.32-1.48,4.11-9.52,7.32-9.83.9-.05-7.9.63-19.51.61-28.09-.18-5.95.38-9.66-.95-12.69l-.13-.16c-.84-.87-2.08-1.31-3.4-1.71-1.86-.47-2.18-1.05-1.31-2.5,5.87-9.33,4.59-22.7,8.05-32.89,1.13-3.25,2.61-6.37,3.32-9.77.91-3.19-.26-6.22,1.01-9.34,2.33-7.41,5.65-18.26,7.94-25.38,2.76,23.66,13.06,46.55,12.47,71.21,0,7.8-3.63,16.11-2.79,23.86.84,4.85,5.87,13.45.87,16.69ZM210.46,156.35c-1.08.37-2.26-.42-2.99-2.19-1.7-3.79-2.26-11.52-2.81-16.06-.33-5.24-3.47-8.7-4.92-13.92-3.04-13.22-3.96-28-5.3-41.56-.05-.64.03-1.15.28-1.35l.11-.07c1.1-.35,2.25,2.2,2.3,3.48,1.53,10.22,3.45,20.95,5.92,31.2,1.72,7.11,5.94,16.69,8.44,28.02.67,4.02,2.49,10.57-1.02,12.44Z"/>
  <path d="M84.29,189.39c3.52,2.15.57,21.05-.63,24.43-.84,4.08-6.74,4.28-10.72,3.95-2.09-.25-5.24-.54-6.33-1.86-1.42-3.76-2.16-10.39-2.75-14.83-.3-2.74-.48-5.09-.32-6.29.09-.45.31-.76.7-1.07,5.95-3.65,13.21-2.84,19.87-4.34l.18.02ZM78.27,198.23c-6.95-2.67-6.34,9.45-4.37,12.02,3.59,3.71,4.77-10.46,4.52-11.93l-.15-.09Z"/>
</svg>