<?xml version="1.0" encoding="UTF-8"?>
<svg id="a" data-name="Layer 1" xmlns="http://www.w3.org/2000/svg" viewBox="0 0 408.67 307.4">
  <defs>
    <style>
      .c {
        fill: #fff;
      }
    </style>
  </defs>
  <path class="c" d="M67.72,267.06c-.13-.16-1.17-.24-.03-.41,6.79,4.49,14.63-.5,12.19-8.6-.48-1.6-1.89-4.2-3.97-3.19-2.82,1.36,2.51,9.19-3.71,8.19-3.74-.6-10.87-9.51-11.22-13.24-.28-2.96,1.51-6.68,3.97-8.31,2.56-1.69,2.15-.09,3.79,1.44,5.16,4.78,18.37,12.19,25.24,8.51,6.16-3.3-2.01-11.93-6.57-11.65-1.55.09-1.62.74-1.33,2.23s4.34,4.11,4.46,4.49c.05.15.1.77-.18.75-6.54-.04-17.16-5.09-20.49-10.82-2.54-4.38.46-6.61,4.74-6.76,1.2-.04,3.44,1.38,4.14-.02.82-1.62-2.54-3.62-3.6-4.77-7.21-7.84-19.94-25.18-21-35.69-.16-1.61.4-5.83,2.06-6.53,2.73-1.14,8.81,3.33,11.13,4.97,9.82,6.96,18.03,16.92,27.08,24.85,5.76,2.61,5.25-5.97,5.06-9.53-.91-16.39-5.57-34.48-2.61-50.96.67-3.72,2.83.08,3.56,1.67,8.71,18.92,10.38,43.99,15.92,64.36.39,1.44,2.16,5.46,2.18,6.48.01.66-2.83,2.68-3.52,3.53-5.6,6.87-3.25,17.7,6.72,16.86,3.82-.32,7.06-5.56,4.16-5.99-2.44-.36-4.42,3.72-8.17.74-3.3-2.62-.92-8.14,1.76-10.42,8.87-7.54,20.45,1.39,23.64,10.38,10.58,29.81-26.46,54.38-52.79,43.53-7.2-2.97-17.7-10.03-22.61-16.05Z"/>
  <path d="M148.73,186.68c.61.8-2.04,4.2-2.83,4.16-1.74-.1,1.81-5.49,2.83-4.16Z"/>
  <path d="M170.42,181.34c1.58-.42,1.09,2.03-.05,2.94-2.63,2.11-1.44-2.54.05-2.94Z"/>
  <path d="M140.38,191.74c-.54-.56,1.74-4.15,2.83-3.88,1.27.32-1.1,3.06-1.62,3.44-.41.3-.6.56-1.21.43Z"/>
  <path d="M153.51,189.36c-.25-1.56,1.13-2.24,1.78-3.45l1.07.45c-.14,1.45-1.24,3.21-2.85,3Z"/>
  <path d="M165.94,185.67c-.23.23-.95.7-1.25.71l-.72-.48c.08-3.05,4.34-2.6,1.97-.23Z"/>
  <path d="M160.37,185.48c.13,1.42-.85,2.91-2.38,2.68-.13-1.42.85-2.91,2.38-2.68Z"/>
  <path d="M151.58,186.67l.74.45c-1.35,3.5-3.98,2.24-.74-.45Z"/>
  <path d="M246.03,204.28l-2.04,1.09c-9.51,2.36-19.81,5.3-30.03,5.78-3.22.15-6.49-.13-9.71-.02-.07-.52.68-.28,1.04-.3,3.98-.16,7.93-.42,11.91-.63,3.8-.96,7.76-1.13,11.59-1.84,5.8-1.07,11.51-2.76,17.24-4.1Z"/>
  <path d="M341.23,134.15c-.76.55-7.76-2.83-8.96-3.42-.94-.47-2.89-2.23-3.89-1.52-.84,1.11.19,2.19.33,3.29.25,2.08-.14,4.71-.02,6.88.32,6.13,1.78,11.68,6.73,15.65,2.11,1.69,4.3,2.36,6.7,3.44-.91,1.46-4.52.77-5.22,2.24-.47.99.03,3.5-.22,4.85-.41,2.19-2.42,5.49-3.07,7.98-2.08,7.99-.81,19.33,6.93,23.81.18.11.58.01.38.51-.1.23-3.2,3.61-3.42,3.74-.75.46-3.93,1.65-4.82,1.75-3.93.44-6.74-2.32-10.26-3.25-.66,5.48-4.04,6.43-7.92,2.7-1.85-1.78-3.03-4.17-4.56-6.18-.22-.29-.28-.78-.8-.69-.42.09-1.25,3.76-1.51,4.46-1.57,4.21-7.26,16.72-10.71,19.13-.79.55-1.74-.12-1.07.88l-.74-.6c-.32.46-1.1.4-1.41.61-.44.29-1.08,1.77-1.5,2-.46.25-.9.5-1.55,1.29-1.52,1.85-3.19,4.41-4.76,6.14-6.97,7.74-28.47,18.61-38.69,20.84-2.01.44-2.27-.23-3.35-.1-2.36.28-4.66,1.8-6.8,2.49-1.93.62-4.71,1.01-6.76,1.3-23.28,3.23-52.34-.53-72.72-12.54-4.15-2.44-8.95-6.76-13.17-8.61-.35-.16-.59-.4-1.06-.29-.56,3.89,2.79,7.26,4.02,10.75,1.9,5.37.36,14.97-1.88,20.19-8.88,20.63-35.76,31.91-56.66,23.13-6.26-2.63-24.48-14.68-25.71-21.47-.14-.78.31-1.35.03-2.07s-3.16-3.67-3.91-4.77c-5.96-8.71-4.35-16.8,5.19-21.57.3-.46-.39-1.08-.46-1.66-.59-4.89,2.76-9.55,7.89-9.38l.15-.59c-1.79-1.12-3.64-3.34-5.05-5.02-6.68-7.95-20.11-26.94-15.55-37.52.97-2.25,3.93-4.43,6.41-4.3,4.08.21,12.81,6.53,16.13,9.24,1.08.88,2.69,3.56,4,2.19.9-.94,4.6-5.94,4.94-6.99,1.23-3.74-2.18-6.93-3.77-9.93-3.57-6.77-3.11-14.14.49-20.8,1.84-3.41,4.67-6.15,6.66-9.45,4.45-7.38,4.62-16.11,6.06-24.38,4.27-24.54,7.95-48.65,28.18-65.52,6.94-5.79,14.27-8.54,22.67-11.65,12.41-4.6,27.58-8.58,40.9-7.76,10.99.68,19.15,7.84,26.85,14.93.35,0,2.16-5.48,2.58-6.37,4.99-10.72,14.09-16.89,24.73-21.22,1.94-.79,4.54-1.29,6.27-2.09,2.45-1.13,2.85-1.52,5.85-1.91,18.22-2.31,35.4.94,49.36,13.24,5.81,5.12,12.18,14.53,15.93,21.38,5.67,10.38,11.55,30.93,22.3,36.48,4.09,2.11,8.34,1.19,2.66,6.6-1.35,1.28-2.13.75-2.56,3.11-.39,2.16-.13,4.2-.25,6.18-.4,6.65-1.77,12.32-.73,19,.62,4.03,1.86,7.83,4.13,11.24ZM301.24,138.63c-5.57.69-10.91,1.12-16.48.22-21.56-3.5-35.01-23.21-49.77-36.78-2.11-1.94-9.58-8.41-12.09-8.44-.7,0-6.64,1.19-7.12,1.48-.79.46-1.03,1.27-2.16,1.44-1.92.28-2.95-1.23-5.33-.86-3.85.59-12.37,7.58-12.98,11.49-.68,4.4-.17,6.4-2.24,10.89-2.42,5.24-7.15,8.76-9.73,13.25-2.03,3.55-3.45,9.17-5.36,13.14-2.97,6.17-7.24,11.47-12.23,16.12.12.37.63.07.89,0,7.5-2.37,12.33-3.78,20.31-1.8,2.58.64,9.12,2.89,6.82,6.55-1.08,1.72-7.12.26-9.06.17-8.72-.43-15.84,1.06-23.45,5.23-3.91,2.14-6.94,5.13-11.1,6.51-.75.25-1.36,1.22-2.34.68-.76-.54.24-2.39.55-3.06l5.73-6.95c-4.92.76-9.13,3.3-13.75,4.9-3.13,4.46-7.8,10.71-7.14,16.43.48,4.17,6.02,7.92,6.57,13.42.48,4.75-3.94,7.65-3.75,10.16.11,1.49,3.6,2.52,4.03,5.38.63,4.15-1.04,5.26-4.45,6.84,1.14.84,2.32,1.64,3.42,2.54,4.14,3.43,9.97,6.22,14.97,8.61,26.38,12.61,54.29,17.63,83.45,12.79,32.44-5.39,65.39-26.88,69.73-61.88,1.56-12.59-1.57-20.07-5.47-31.46-1.96-5.72-1.65-11.13-.46-16.99ZM67.72,267.06c4.91,6.03,15.41,13.08,22.61,16.05,26.33,10.85,63.37-13.72,52.79-43.53-3.19-8.99-14.78-17.93-23.64-10.38-2.68,2.28-5.06,7.8-1.76,10.42,3.75,2.98,5.73-1.1,8.17-.74,2.9.43-.34,5.67-4.16,5.99-9.97.83-12.32-9.99-6.72-16.86.69-.85,3.53-2.87,3.52-3.53-.02-1.01-1.79-5.03-2.18-6.48-5.54-20.37-7.21-45.44-15.92-64.36-.73-1.59-2.89-5.39-3.56-1.67-2.96,16.48,1.71,34.56,2.61,50.96.2,3.56.71,12.14-5.06,9.53-9.05-7.92-17.26-17.89-27.08-24.85-2.32-1.64-8.41-6.11-11.13-4.97-1.66.69-2.23,4.91-2.06,6.53,1.06,10.51,13.79,27.85,21,35.69,1.06,1.15,4.41,3.15,3.6,4.77-.7,1.4-2.95-.02-4.14.02-4.28.16-7.29,2.39-4.74,6.76,3.33,5.73,13.96,10.78,20.49,10.82.28.02.22-.6.18-.75-.12-.38-4.18-3.02-4.46-4.49s-.23-2.14,1.33-2.23c4.56-.28,12.73,8.35,6.57,11.65-6.86,3.68-20.08-3.72-25.24-8.51-1.65-1.53-1.24-3.13-3.79-1.44-2.46,1.63-4.25,5.35-3.97,8.31.35,3.73,7.49,12.64,11.22,13.24,6.22,1,.89-6.82,3.71-8.19,2.08-1.01,3.49,1.59,3.97,3.19,2.44,8.1-5.39,13.08-12.19,8.6-1.14.17-.1.25.03.41Z"/>
  <path class="c" d="M301.24,138.63c-1.19,5.86-1.5,11.27.46,16.99,3.89,11.39,7.03,18.86,5.47,31.46-4.34,35-37.29,56.49-69.73,61.88-29.15,4.84-57.06-.18-83.45-12.79-4.99-2.39-10.82-5.18-14.97-8.61-1.09-.9-2.28-1.7-3.42-2.54,3.41-1.58,5.08-2.69,4.45-6.84-.43-2.86-3.92-3.89-4.03-5.38-.19-2.51,4.23-5.4,3.75-10.16-.55-5.51-6.09-9.25-6.57-13.42-.66-5.72,4.01-11.98,7.14-16.43,4.62-1.6,8.83-4.14,13.75-4.9l-5.73,6.95c-.32.67-1.32,2.53-.55,3.06.98.54,1.59-.43,2.34-.68,4.16-1.37,7.19-4.37,11.1-6.51,7.6-4.17,14.72-5.66,23.45-5.23,1.94.1,7.98,1.55,9.06-.17,2.3-3.66-4.24-5.9-6.82-6.55-7.98-1.98-12.81-.58-20.31,1.8-.26.08-.77.38-.89,0,5-4.65,9.26-9.95,12.23-16.12,1.91-3.97,3.33-9.59,5.36-13.14,2.57-4.49,7.3-8.01,9.73-13.25,2.07-4.49,1.56-6.49,2.24-10.89.61-3.91,9.13-10.89,12.98-11.49,2.39-.37,3.41,1.14,5.33.86,1.12-.16,1.37-.98,2.16-1.44.49-.28,6.42-1.48,7.12-1.48,2.51.03,9.98,6.5,12.09,8.44,14.76,13.57,28.21,33.28,49.77,36.78,5.57.9,10.92.47,16.48-.22ZM270.2,144.6c-.14-.18-3.71-1.01-4.17-1.35-.43-.31-.2-1.08-1.11-1.58-5.71-3.1-17.24-.99-22.77,2.17-1.92,1.1-9.66,7.19-8.93,9.52.11.34.67.36.8.56.31.49-.09,1.7,1.31,1.57,1.29-.12,6.77-4.41,8.62-5.38,8.69-4.56,14.37-3.32,23.4-4.35.35-.04,3.22-.7,2.87-1.16ZM282.14,156.24c-.76-.54-3.2,2.21-2.68,3.28,1.31.41,3.77-2.5,2.68-3.28ZM275.28,158.03c-1.87-.32-3.22,1.52-2.98,3.28.71.71,3.71-2.05,2.98-3.28ZM268.41,160.42c-1.87-.58-3.92,3.83-1.09,2.34.94-.5,1.24-1.29,1.09-2.34ZM262,161.02c-.64.25-2.85,3.32-1.49,3.58,1.14.21,3.11-2.85,1.49-3.58ZM257.06,163.11c-1.14-.78-2.76,1.93-2.68,2.97,1.4.99,3.62-2.33,2.68-2.97ZM251.99,163.4c-1.66-.56-3.69,4.4-2.24,4.47,1.26.06,3.22-3.2,2.24-4.47ZM247.22,164.59c-1.47-.14-1.92,1.45-1.78,2.68,1.95.32,2.42-1.05,1.78-2.68ZM267.74,168.55c-3.02.34-6.18,2.37-9.1,3.43-11.95,4.33-26.21,7.52-38.77,9.57-14.92,2.44-47.12,3.48-54.77,18.64-2.5,4.95-3.04,13.53,1.57,17.35,22.16,18.37,54.93,18.45,80.17,6.79,13.88-6.41,35.44-22.6,39.81-37.78,3.2-11.12-9.03-19.1-18.89-17.99ZM170.42,181.34c-1.49.4-2.68,5.05-.05,2.94,1.14-.91,1.63-3.36.05-2.94ZM165.94,185.67c2.37-2.37-1.89-2.82-1.97.23l.72.48c.3,0,1.01-.47,1.25-.71ZM160.37,185.48c-1.53-.23-2.52,1.27-2.38,2.68,1.53.23,2.52-1.27,2.38-2.68ZM153.51,189.36c1.61.22,2.71-1.54,2.85-3l-1.07-.45c-.65,1.21-2.03,1.89-1.78,3.45ZM148.73,186.68c-1.01-1.33-4.57,4.06-2.83,4.16.79.04,3.44-3.36,2.83-4.16ZM151.58,186.67c-3.24,2.69-.61,3.95.74.45l-.74-.45ZM140.38,191.74c.6.13.8-.13,1.21-.43.52-.38,2.89-3.13,1.62-3.44-1.09-.27-3.37,3.32-2.83,3.88Z"/>
  <path d="M267.74,168.55c9.87-1.11,22.09,6.87,18.89,17.99-4.37,15.18-25.93,31.37-39.81,37.78-25.24,11.66-58.01,11.58-80.17-6.79-4.61-3.82-4.07-12.39-1.57-17.35,7.66-15.16,39.85-16.2,54.77-18.64,12.56-2.06,26.83-5.24,38.77-9.57,2.92-1.06,6.09-3.09,9.1-3.43ZM267.64,195.15c2.28-1.8,2.66-1.97,3.44-5.06,1.29-5.12-.11-12.14-1.61-17.15-4.12-1.29-8.06,1.27-11.81,2.53-10.92,3.66-22.6,6.95-33.94,9.03-13.66,2.5-29.17,2.9-42.14,7.7-1.77.65-8.05,3.4-8.93,4.8-.86,1.37-.08,6.15-.28,7.98l13.98,5.57c-4.51.68-9.09-.39-13.28-2.08-.93.08.06,2.8.25,3.32.5,1.36,1.99,3.19,2.22,4.34.18.9-.22,2.53.04,2.93.73,1.14,7.95,4.4,9.59,5.05,30.32,12,66.4.18,87.89-23.11.92-.99,4.04-4.41,4.01-5.49-.05-1.83-1.36-4.18-3.12-4.89-2.12,2.52-4.45,4.75-7.46,6.19l-.45-.59c.81,0,1.18-.73,1.61-1.08Z"/>
  <path d="M270.2,144.6c.35.45-2.51,1.12-2.87,1.16-9.03,1.03-14.71-.21-23.4,4.35-1.85.97-7.33,5.26-8.62,5.38-1.4.13-1-1.08-1.31-1.57-.12-.2-.69-.22-.8-.56-.73-2.33,7.01-8.42,8.93-9.52,5.53-3.16,17.06-5.27,22.77-2.17.91.49.68,1.26,1.11,1.58.46.34,4.03,1.17,4.17,1.35Z"/>
  <path d="M251.99,163.4c.99,1.27-.97,4.53-2.24,4.47-1.45-.07.58-5.03,2.24-4.47Z"/>
  <path d="M275.28,158.03c.72,1.23-2.28,3.99-2.98,3.28-.24-1.76,1.12-3.6,2.98-3.28Z"/>
  <path d="M282.14,156.24c1.09.78-1.37,3.69-2.68,3.28-.52-1.07,1.93-3.82,2.68-3.28Z"/>
  <path d="M257.06,163.11c.94.64-1.28,3.97-2.68,2.97-.08-1.05,1.54-3.75,2.68-2.97Z"/>
  <path d="M262,161.02c1.63.72-.34,3.79-1.49,3.58-1.37-.26.84-3.33,1.49-3.58Z"/>
  <path d="M268.41,160.42c.16,1.05-.14,1.85-1.09,2.34-2.84,1.49-.79-2.92,1.09-2.34Z"/>
  <path d="M247.22,164.59c.64,1.63.17,3.01-1.78,2.68-.14-1.23.32-2.82,1.78-2.68Z"/>
  <path class="c" d="M267.64,195.15c-.43.34-.8,1.08-1.61,1.08l.45.59c3.01-1.44,5.34-3.67,7.46-6.19,1.76.71,3.07,3.05,3.12,4.89.03,1.08-3.09,4.5-4.01,5.49-21.48,23.29-57.57,35.11-87.89,23.11-1.64-.65-8.86-3.91-9.59-5.05-.25-.4.14-2.02-.04-2.93-.23-1.15-1.73-2.99-2.22-4.34-.19-.53-1.18-3.25-.25-3.32,4.2,1.68,8.77,2.76,13.28,2.08l-13.98-5.57c.2-1.83-.58-6.61.28-7.98.88-1.4,7.16-4.15,8.93-4.8,12.98-4.8,28.48-5.19,42.14-7.7,11.34-2.08,23.02-5.37,33.94-9.03,3.75-1.26,7.69-3.82,11.81-2.53,1.5,5.01,2.9,12.03,1.61,17.15-.78,3.1-1.16,3.27-3.44,5.06ZM263.64,197.11c-1.94-3.6-4.53-2.17-4.77,1.49,1.21-.3,1.06-1.85,2.3-2.35l2.47.85ZM246.03,204.28c-5.73,1.34-11.44,3.02-17.24,4.1-3.83.71-7.8.88-11.59,1.84-3.98.21-7.93.46-11.91.63-.36.01-1.11-.23-1.04.3,3.22-.12,6.49.17,9.71.02,10.22-.48,20.52-3.42,30.03-5.78l2.04-1.09Z"/>
  <path d="M263.64,197.11l-2.47-.85c-1.24.5-1.09,2.05-2.3,2.35.24-3.66,2.83-5.1,4.77-1.49Z"/>
</svg>